<svg width="86" height="42" viewBox="0 0 86 42" fill="none" xmlns="http://www.w3.org/2000/svg">
<path d="M63 36.878C61.8954 36.878 61 35.9826 61 34.878V2C61 0.895429 61.8954 0 63 0H84C85.1046 0 86 0.895431 86 2V4.42845C86 5.53302 85.1046 6.42845 84 6.42845H70.983C69.8785 6.42845 68.983 7.32388 68.983 8.42845V13.2158C68.983 14.3204 69.8785 15.2158 70.983 15.2158H82.3407C83.4453 15.2158 84.3407 16.1112 84.3407 17.2158V19.6442C84.3407 20.7488 83.4453 21.6442 82.3407 21.6442H70.983C69.8785 21.6442 68.983 22.5397 68.983 23.6442V34.878C68.983 35.9826 68.0876 36.878 66.983 36.878H63Z" fill="#1A72C4"/>
<path d="M21.3216 23.213C21.3216 25.5141 20.9062 27.5028 20.0752 29.1789C19.2442 30.855 18.1043 32.1476 16.6555 33.0567C15.2066 33.9658 13.5518 34.4204 11.691 34.4204C9.83017 34.4204 8.17534 33.9658 6.72647 33.0567C5.27761 32.1476 4.1377 30.855 3.30673 29.1789C2.47576 27.5028 2.06028 25.5141 2.06028 23.213C2.06028 20.9118 2.47576 18.9232 3.30673 17.2471C4.1377 15.5709 5.27761 14.2783 6.72647 13.3692C8.17534 12.4601 9.83017 12.0056 11.691 12.0056C13.5518 12.0056 15.2066 12.4601 16.6555 13.3692C18.1043 14.2783 19.2442 15.5709 20.0752 17.2471C20.9062 18.9232 21.3216 20.9118 21.3216 23.213ZM18.7648 23.213C18.7648 21.3238 18.4488 19.7293 17.8167 18.4296C17.1917 17.1299 16.343 16.1462 15.2705 15.4786C14.2052 14.811 13.012 14.4772 11.691 14.4772C10.3699 14.4772 9.17321 14.811 8.10076 15.4786C7.03542 16.1462 6.1867 17.1299 5.5546 18.4296C4.9296 19.7293 4.6171 21.3238 4.6171 23.213C4.6171 25.1022 4.9296 26.6966 5.5546 27.9964C6.1867 29.2961 7.03542 30.2797 8.10076 30.9474C9.17321 31.615 10.3699 31.9488 11.691 31.9488C13.012 31.9488 14.2052 31.615 15.2705 30.9474C16.343 30.2797 17.1917 29.2961 17.8167 27.9964C18.4488 26.6966 18.7648 25.1022 18.7648 23.213ZM25.7641 34.1221V12.3039H38.8465V14.6476H28.4062V22.0198H37.8664V24.3635H28.4062V34.1221H25.7641Z" fill="black"/>
<path d="M55.3115 33.0977V35.4414H41.6752V33.0977H55.3115Z" fill="black"/>
</svg>
