<svg width="40" height="40" viewBox="0 0 40 40" fill="none" xmlns="http://www.w3.org/2000/svg">
<path fill-rule="evenodd" clip-rule="evenodd" d="M9.13107 18.4925C11.7575 21.928 16.8705 22.867 20.5542 20.574C24.2379 18.2809 25.0809 13.6344 22.4545 10.1989C19.828 6.76331 14.715 5.82432 11.0313 8.11736C7.3476 10.4104 6.50463 15.0569 9.13107 18.4925ZM6.5856 20.077C10.1575 24.7493 17.0409 26.078 22.1029 23.1261C22.1318 23.252 22.1887 23.3756 22.2751 23.4889L23.8654 25.5768C24.2003 26.0166 24.0922 26.6099 23.6239 26.902L19.461 29.4985C19.0043 29.7834 18.8989 30.3619 19.2256 30.7908C19.5523 31.2197 20.1873 31.3365 20.644 31.0516L24.8069 28.4552C25.2752 28.1631 25.9264 28.2828 26.2614 28.7226L26.6654 29.253C27.0004 29.6928 26.8923 30.2861 26.424 30.5782L21.6303 33.5681C21.1736 33.8529 21.0682 34.4315 21.3949 34.8604C21.7216 35.2893 22.3566 35.406 22.8133 35.1212L30.6415 30.2386C31.1098 29.9465 31.2179 29.3532 30.8829 28.9134L25.3096 21.5963C25.1242 21.3529 24.842 21.2075 24.5476 21.1757C27.7181 17.747 28.0448 12.5972 24.9999 8.61434C21.3628 3.85674 14.2921 2.56595 9.20715 5.73127C4.12217 8.8966 2.94847 15.3194 6.5856 20.077ZM14.8679 17.256C15.1678 17.71 15.8039 17.868 16.2887 17.6089C16.7735 17.3497 16.9234 16.7717 16.6236 16.3177L16.3126 15.8469C16.0097 15.3883 16.1612 14.8045 16.6508 14.5427L18.6633 13.4671C18.9275 13.3259 19.0093 13.0109 18.8458 12.7635C18.6824 12.5161 18.3358 12.43 18.0716 12.5712L15.8263 13.7712C15.4652 13.9643 14.9913 13.8466 14.768 13.5084C14.5446 13.1702 14.6563 12.7396 15.0174 12.5466L17.6276 11.1515C17.8918 11.0103 17.9735 10.6953 17.8101 10.4479C17.6467 10.2005 17.3 10.1144 17.0358 10.2556L12.9027 12.4646C12.413 12.7264 12.2616 13.3102 12.5645 13.7688L14.8679 17.256Z" fill="#1A72C3"/>
</svg>
