<svg width="50" height="53" viewBox="0 0 50 53" fill="none" xmlns="http://www.w3.org/2000/svg">
<g filter="url(#filter0_d_304_364)">
<path fill-rule="evenodd" clip-rule="evenodd" d="M10.7775 23.5118C14.3132 28.1367 21.1939 29.3984 26.1489 26.314C31.1038 23.2297 32.2402 16.9774 28.7045 12.3525C25.1687 7.72755 18.288 6.46587 13.3331 9.55024C8.37816 12.6346 7.24176 18.8868 10.7775 23.5118ZM8.23202 25.0963C12.6822 30.9175 21.2446 32.5866 27.5662 28.9438C27.5974 29.0193 27.6392 29.0926 27.6922 29.1622L29.9833 32.1702C30.3183 32.61 30.2102 33.2033 29.7419 33.4954L24.1406 36.989C23.6723 37.2811 23.5642 37.8744 23.8992 38.3142L24.1648 38.663C24.4998 39.1028 25.151 39.2225 25.6193 38.9304L31.2207 35.4368C31.689 35.1447 32.3402 35.2644 32.6751 35.7042L33.4834 36.7654C33.8184 37.2052 33.7103 37.7985 33.242 38.0906L26.8522 42.076C26.3839 42.3681 26.2758 42.9614 26.6108 43.4012L26.8765 43.7499C27.2115 44.1897 27.8627 44.3095 28.331 44.0174L38.5139 37.6661C38.9822 37.374 39.0903 36.7807 38.7553 36.3409L31.4854 26.7963C31.3089 26.5646 31.0447 26.4218 30.7656 26.3811C34.653 22.0955 35.0298 15.7123 31.2499 10.768C26.7035 4.82098 17.8652 3.20749 11.509 7.16415C5.15273 11.1208 3.6856 19.1493 8.23202 25.0963ZM18.7152 21.7674C19.0181 22.2259 19.6606 22.3854 20.1502 22.1237L20.5715 21.8986C21.0612 21.6368 21.2127 21.053 20.9098 20.5944L20.2537 19.6011C19.9508 19.1426 20.1022 18.5587 20.5919 18.297L23.3292 16.834C23.6594 16.6575 23.7616 16.2637 23.5573 15.9544C23.353 15.6452 22.9197 15.5376 22.5895 15.7141L19.7829 17.2141C19.3315 17.4554 18.7392 17.3083 18.46 16.8856C18.1807 16.4628 18.3204 15.9246 18.7718 15.6833L22.0345 13.9395C22.3647 13.763 22.4669 13.3692 22.2626 13.0599C22.0583 12.7507 21.625 12.6431 21.2948 12.8196L15.9067 15.6993C15.4171 15.961 15.2656 16.5449 15.5685 17.0035L18.7152 21.7674Z" fill="white"/>
</g>
<defs>
<filter id="filter0_d_304_364" x="-4" y="0" width="58" height="58" filterUnits="userSpaceOnUse" color-interpolation-filters="sRGB">
<feFlood flood-opacity="0" result="BackgroundImageFix"/>
<feColorMatrix in="SourceAlpha" type="matrix" values="0 0 0 0 0 0 0 0 0 0 0 0 0 0 0 0 0 0 127 0" result="hardAlpha"/>
<feOffset dy="4"/>
<feGaussianBlur stdDeviation="2"/>
<feComposite in2="hardAlpha" operator="out"/>
<feColorMatrix type="matrix" values="0 0 0 0 0 0 0 0 0 0 0 0 0 0 0 0 0 0 0.25 0"/>
<feBlend mode="normal" in2="BackgroundImageFix" result="effect1_dropShadow_304_364"/>
<feBlend mode="normal" in="SourceGraphic" in2="effect1_dropShadow_304_364" result="shape"/>
</filter>
</defs>
</svg>
