<svg width="86" height="41" viewBox="0 0 86 41" fill="none" xmlns="http://www.w3.org/2000/svg">
<path d="M63 36C61.8954 36 61 35.1046 61 34V2C61 0.895432 61.8954 0 63 0H84C85.1046 0 86 0.89543 86 2V4.27539C86 5.37996 85.1046 6.27539 84 6.27539H70.983C69.8785 6.27539 68.983 7.17082 68.983 8.27539V12.8535C68.983 13.9581 69.8785 14.8535 70.983 14.8535H82.3407C83.4453 14.8535 84.3407 15.7489 84.3407 16.8535V19.1289C84.3407 20.2335 83.4453 21.1289 82.3407 21.1289H70.983C69.8785 21.1289 68.983 22.0243 68.983 23.1289V34C68.983 35.1046 68.0876 36 66.983 36H63Z" fill="white"/>
<path d="M21.3216 23.0909C21.3216 25.392 20.9062 27.3807 20.0752 29.0568C19.2442 30.733 18.1043 32.0256 16.6555 32.9347C15.2066 33.8438 13.5518 34.2983 11.691 34.2983C9.83017 34.2983 8.17534 33.8438 6.72647 32.9347C5.27761 32.0256 4.1377 30.733 3.30673 29.0568C2.47576 27.3807 2.06028 25.392 2.06028 23.0909C2.06028 20.7898 2.47576 18.8011 3.30673 17.125C4.1377 15.4489 5.27761 14.1562 6.72647 13.2472C8.17534 12.3381 9.83017 11.8835 11.691 11.8835C13.5518 11.8835 15.2066 12.3381 16.6555 13.2472C18.1043 14.1562 19.2442 15.4489 20.0752 17.125C20.9062 18.8011 21.3216 20.7898 21.3216 23.0909ZM18.7648 23.0909C18.7648 21.2017 18.4488 19.6072 17.8167 18.3075C17.1917 17.0078 16.343 16.0241 15.2705 15.3565C14.2052 14.6889 13.012 14.3551 11.691 14.3551C10.3699 14.3551 9.17321 14.6889 8.10076 15.3565C7.03542 16.0241 6.1867 17.0078 5.5546 18.3075C4.9296 19.6072 4.6171 21.2017 4.6171 23.0909C4.6171 24.9801 4.9296 26.5746 5.5546 27.8743C6.1867 29.174 7.03542 30.1577 8.10076 30.8253C9.17321 31.4929 10.3699 31.8267 11.691 31.8267C13.012 31.8267 14.2052 31.4929 15.2705 30.8253C16.343 30.1577 17.1917 29.174 17.8167 27.8743C18.4488 26.5746 18.7648 24.9801 18.7648 23.0909ZM25.7641 34V12.1818H38.8465V14.5256H28.4062V21.8977H37.8664V24.2415H28.4062V34H25.7641Z" fill="black"/>
<path d="M55.3115 33V35.3438H41.6752V33H55.3115Z" fill="black"/>
</svg>
