<svg width="17" height="17" viewBox="0 0 17 17" fill="none" xmlns="http://www.w3.org/2000/svg">
<path d="M2.53993 2.53993C2.27426 2.80561 2.125 3.16594 2.125 3.54167V4.25C2.125 10.1178 6.88217 14.875 12.75 14.875H13.4583C13.8341 14.875 14.1944 14.7257 14.4601 14.4601C14.7257 14.1944 14.875 13.8341 14.875 13.4583V11.1357C14.875 10.987 14.8283 10.842 14.7413 10.7214C14.6543 10.6007 14.5316 10.5105 14.3905 10.4635L11.208 9.40242C11.0462 9.34865 10.8705 9.35501 10.7131 9.42033C10.5557 9.48564 10.4271 9.60553 10.3509 9.758L9.55046 11.3567C7.81608 10.5731 6.42693 9.18392 5.64329 7.44954L7.242 6.64913C7.39447 6.57295 7.51436 6.44435 7.57967 6.28691C7.64499 6.12948 7.65135 5.95378 7.59758 5.79204L6.5365 2.6095C6.48954 2.46851 6.39943 2.34586 6.27892 2.25891C6.15841 2.17196 6.0136 2.12511 5.865 2.125H3.54167C3.16594 2.125 2.80561 2.27426 2.53993 2.53993Z" stroke="#1A72C3" stroke-width="2" stroke-linecap="round" stroke-linejoin="round"/>
</svg>
