<svg width="136" height="50" viewBox="0 0 136 50" fill="none" xmlns="http://www.w3.org/2000/svg">
<path d="M113 45C111.895 45 111 44.1046 111 43V11C111 9.89543 111.895 9 113 9H134C135.105 9 136 9.89543 136 11V13.2754C136 14.38 135.105 15.2754 134 15.2754H120.983C119.878 15.2754 118.983 16.1708 118.983 17.2754V21.8535C118.983 22.9581 119.878 23.8535 120.983 23.8535H132.341C133.445 23.8535 134.341 24.7489 134.341 25.8535V28.1289C134.341 29.2335 133.445 30.1289 132.341 30.1289H120.983C119.878 30.1289 118.983 31.0243 118.983 32.1289V43C118.983 44.1046 118.088 45 116.983 45H113Z" fill="white"/>
<path d="M71.3216 32.0909C71.3216 34.392 70.9062 36.3807 70.0752 38.0568C69.2442 39.733 68.1043 41.0256 66.6555 41.9347C65.2066 42.8438 63.5518 43.2983 61.691 43.2983C59.8302 43.2983 58.1753 42.8438 56.7265 41.9347C55.2776 41.0256 54.1377 39.733 53.3067 38.0568C52.4758 36.3807 52.0603 34.392 52.0603 32.0909C52.0603 29.7898 52.4758 27.8011 53.3067 26.125C54.1377 24.4489 55.2776 23.1562 56.7265 22.2472C58.1753 21.3381 59.8302 20.8835 61.691 20.8835C63.5518 20.8835 65.2066 21.3381 66.6555 22.2472C68.1043 23.1562 69.2442 24.4489 70.0752 26.125C70.9062 27.8011 71.3216 29.7898 71.3216 32.0909ZM68.7648 32.0909C68.7648 30.2017 68.4488 28.6072 67.8167 27.3075C67.1917 26.0078 66.343 25.0241 65.2705 24.3565C64.2052 23.6889 63.012 23.3551 61.691 23.3551C60.3699 23.3551 59.1732 23.6889 58.1008 24.3565C57.0354 25.0241 56.1867 26.0078 55.5546 27.3075C54.9296 28.6072 54.6171 30.2017 54.6171 32.0909C54.6171 33.9801 54.9296 35.5746 55.5546 36.8743C56.1867 38.174 57.0354 39.1577 58.1008 39.8253C59.1732 40.4929 60.3699 40.8267 61.691 40.8267C63.012 40.8267 64.2052 40.4929 65.2705 39.8253C66.343 39.1577 67.1917 38.174 67.8167 36.8743C68.4488 35.5746 68.7648 33.9801 68.7648 32.0909ZM75.7641 43V21.1818H88.8465V23.5256H78.4062V30.8977H87.8664V33.2415H78.4062V43H75.7641Z" fill="black"/>
<path d="M105.312 42V44.3438H91.6752V42H105.312Z" fill="black"/>
<path fill-rule="evenodd" clip-rule="evenodd" d="M26.1489 26.3141C21.1939 29.3985 14.3132 28.1368 10.7775 23.5118C7.24176 18.8869 8.37816 12.6347 13.3331 9.5503C18.288 6.46593 25.1687 7.72762 28.7045 12.3526C32.2402 16.9775 31.1038 23.2297 26.1489 26.3141ZM27.5662 28.9439C21.2446 32.5866 12.6822 30.9175 8.23202 25.0964C3.6856 19.1494 5.15273 11.1209 11.509 7.16421C17.8652 3.20755 26.7035 4.82105 31.2499 10.768C35.0298 15.7124 34.653 22.0955 30.7656 26.3812C31.0447 26.4218 31.3089 26.5647 31.4854 26.7964L38.7553 36.341C39.0903 36.7808 38.9822 37.3741 38.5139 37.6662L28.331 44.0174C27.8627 44.3095 27.2115 44.1898 26.8765 43.75L26.6108 43.4012C26.2758 42.9614 26.3839 42.3681 26.8522 42.076L33.242 38.0906C33.7103 37.7985 33.8184 37.2052 33.4834 36.7654L32.6751 35.7043C32.3402 35.2645 31.689 35.1447 31.2207 35.4368L25.6193 38.9305C25.151 39.2226 24.4998 39.1028 24.1648 38.663L23.8992 38.3143C23.5642 37.8745 23.6723 37.2812 24.1406 36.9891L29.7419 33.4954C30.2102 33.2033 30.3183 32.61 29.9833 32.1702L27.6922 29.1622C27.6392 29.0927 27.5974 29.0193 27.5662 28.9439Z" fill="white"/>
</svg>
