<svg width="329" height="330" viewBox="0 0 329 330" fill="none" xmlns="http://www.w3.org/2000/svg">
<circle cx="121.333" cy="197.544" r="64.5" transform="rotate(-30.129 121.333 197.544)" stroke="#C3DDFD" stroke-width="3"/>
<circle cx="121.333" cy="197.544" r="44.5" transform="rotate(-30.129 121.333 197.544)" stroke="#C3DDFD" stroke-width="3"/>
<path d="M179.476 240.11L176.881 241.616L178.387 244.211L180.982 242.705L179.476 240.11ZM106.465 114.307L104.959 111.712L102.365 113.218L103.871 115.813L106.465 114.307ZM181.898 70.5288L184.493 69.023L182.987 66.4283L180.392 67.9341L181.898 70.5288ZM189.741 84.0428L191.247 86.6375L193.842 85.1317L192.336 82.537L189.741 84.0428ZM129.542 118.98L128.036 116.385L125.442 117.891L126.948 120.485L129.542 118.98ZM154.212 161.487L151.617 162.993L153.123 165.588L155.718 164.082L154.212 161.487ZM208.759 129.83L211.354 128.325L209.848 125.73L207.254 127.236L208.759 129.83ZM216.602 143.344L218.108 145.939L220.703 144.433L219.197 141.839L216.602 143.344ZM162.055 175.001L160.549 172.407L157.954 173.913L159.46 176.507L162.055 175.001ZM194.71 231.269L196.216 233.864L198.811 232.358L197.305 229.763L194.71 231.269ZM182.071 238.604L109.06 112.801L103.871 115.813L176.881 241.616L182.071 238.604ZM107.971 116.901L183.404 73.1235L180.392 67.9341L104.959 111.712L107.971 116.901ZM179.303 72.0347L187.146 85.5487L192.336 82.537L184.493 69.023L179.303 72.0347ZM188.235 81.4481L128.036 116.385L131.048 121.574L191.247 86.6375L188.235 81.4481ZM126.948 120.485L151.617 162.993L156.807 159.982L132.137 117.474L126.948 120.485ZM155.718 164.082L210.265 132.425L207.254 127.236L152.706 158.893L155.718 164.082ZM206.165 131.336L214.008 144.85L219.197 141.839L211.354 128.325L206.165 131.336ZM215.096 140.75L160.549 172.407L163.561 177.596L218.108 145.939L215.096 140.75ZM159.46 176.507L192.115 232.775L197.305 229.763L164.65 173.496L159.46 176.507ZM193.204 228.674L177.97 237.515L180.982 242.705L196.216 233.864L193.204 228.674Z" fill="#C3DDFD"/>
<path d="M217.531 218.024L214.937 219.53L216.443 222.125L219.037 220.619L217.531 218.024ZM144.521 92.2208L143.015 89.6261L140.42 91.1319L141.926 93.7266L144.521 92.2208ZM219.954 48.4429L222.548 46.937L221.042 44.3423L218.448 45.8482L219.954 48.4429ZM227.797 61.9569L229.302 64.5516L231.897 63.0458L230.391 60.4511L227.797 61.9569ZM167.598 96.8937L166.092 94.299L163.497 95.8048L165.003 98.3995L167.598 96.8937ZM192.267 139.401L189.673 140.907L191.179 143.502L193.773 141.996L192.267 139.401ZM246.815 107.744L249.41 106.239L247.904 103.644L245.309 105.15L246.815 107.744ZM254.658 121.258L256.164 123.853L258.758 122.347L257.253 119.753L254.658 121.258ZM200.11 152.915L198.604 150.321L196.01 151.827L197.516 154.421L200.11 152.915ZM232.765 209.183L234.271 211.778L236.866 210.272L235.36 207.677L232.765 209.183ZM220.126 216.518L147.115 90.7149L141.926 93.7266L214.937 219.53L220.126 216.518ZM146.027 94.8155L221.459 51.0376L218.448 45.8482L143.015 89.6261L146.027 94.8155ZM217.359 49.9487L225.202 63.4628L230.391 60.4511L222.548 46.937L217.359 49.9487ZM226.291 59.3622L166.092 94.299L169.104 99.4884L229.302 64.5516L226.291 59.3622ZM165.003 98.3995L189.673 140.907L194.862 137.896L170.192 95.3878L165.003 98.3995ZM193.773 141.996L248.321 110.339L245.309 105.15L190.762 136.807L193.773 141.996ZM244.22 109.25L252.063 122.764L257.253 119.753L249.41 106.239L244.22 109.25ZM253.152 118.664L198.604 150.321L201.616 155.51L256.164 123.853L253.152 118.664ZM197.516 154.421L230.171 210.689L235.36 207.677L202.705 151.41L197.516 154.421ZM231.26 206.588L216.026 215.429L219.037 220.619L234.271 211.778L231.26 206.588Z" fill="#C3DDFD"/>
</svg>
