<svg width="18" height="18" viewBox="0 0 18 18" fill="none" xmlns="http://www.w3.org/2000/svg">
<path d="M11.257 2.8125C10.1066 2.81248 8.97894 3.13282 8.00034 3.73762C7.02174 4.34241 6.23089 5.20777 5.71641 6.23672C5.28693 7.08705 5.06296 8.02628 5.0625 8.97891C5.06496 9.12376 5.01279 9.26423 4.91638 9.37237C4.81996 9.48051 4.68637 9.54839 4.54219 9.5625C4.46485 9.56832 4.38714 9.55808 4.31395 9.53243C4.24076 9.50677 4.17366 9.46627 4.11688 9.41344C4.06009 9.36062 4.01484 9.29662 3.98397 9.22547C3.9531 9.15432 3.93728 9.07756 3.9375 9C3.93778 8.21399 4.06359 7.43306 4.31016 6.68672C4.32661 6.63913 4.32999 6.58799 4.31993 6.53865C4.30988 6.48931 4.28676 6.44358 4.253 6.40622C4.21923 6.36886 4.17606 6.34126 4.12798 6.32628C4.07991 6.31131 4.02869 6.30952 3.97969 6.32109C3.00436 6.56289 2.13802 7.12416 1.51873 7.91549C0.89943 8.70681 0.562807 9.68265 0.5625 10.6875C0.5625 13.1625 2.65781 15.1875 5.12578 15.1875H11.25C12.891 15.1884 14.4652 14.5374 15.6263 13.3777C16.7873 12.218 17.4401 10.6445 17.441 9.00352C17.4419 7.36249 16.7909 5.7883 15.6312 4.62726C14.4715 3.46622 12.8981 2.81343 11.257 2.8125ZM13.4719 11.5102L11.0883 13.9008C10.9795 14.0028 10.8366 14.0605 10.6875 14.0625C10.5381 14.0619 10.3947 14.004 10.2867 13.9008L7.90313 11.5102C7.80617 11.4032 7.75408 11.263 7.75764 11.1186C7.76119 10.9743 7.82012 10.8368 7.92222 10.7347C8.02432 10.6326 8.16177 10.5737 8.30612 10.5701C8.45047 10.5666 8.59065 10.6187 8.69766 10.7156L10.125 12.143V7.875C10.125 7.72582 10.1843 7.58274 10.2898 7.47725C10.3952 7.37176 10.5383 7.3125 10.6875 7.3125C10.8367 7.3125 10.9798 7.37176 11.0852 7.47725C11.1907 7.58274 11.25 7.72582 11.25 7.875V12.143L12.6773 10.7156C12.7843 10.6187 12.9245 10.5666 13.0689 10.5701C13.2132 10.5737 13.3507 10.6326 13.4528 10.7347C13.5549 10.8368 13.6138 10.9743 13.6174 11.1186C13.6209 11.263 13.5688 11.4032 13.4719 11.5102Z" fill="#1A72C3"/>
</svg>
