<svg width="281" height="48" viewBox="0 0 281 48" fill="none" xmlns="http://www.w3.org/2000/svg">
<path fill-rule="evenodd" clip-rule="evenodd" d="M240.172 27.5351C232.165 29.0042 224.695 30.1644 208.912 32.3857C190.406 34.9914 182.589 35.8957 174.425 36.3779C171.454 36.5536 170.698 36.7599 167.859 38.1736C152.735 45.7053 124.084 49.2613 98.4339 46.7924C72.2269 44.2693 47.4479 38.4177 20.4339 28.371C10.9119 24.8304 0.987948 19.4575 0.733948 17.7054C0.667948 17.2562 0.776948 17.2998 2.05795 18.243C12.4809 25.9139 51.7069 37.4874 79.8579 41.1967C103.566 44.3211 118.107 44.6748 135.679 42.5596C145.086 41.4254 160.13 38.1111 160.78 37.0276C160.854 36.9049 160.833 36.8448 160.722 36.8684C159.66 37.0983 146.859 36.5489 141.874 36.0584C125.193 34.4207 113.152 30.9354 103.732 25.0178C88.438 15.4086 96.4339 2.34246 118.534 0.830929C134.629 -0.270298 151.327 2.61954 165.957 9.03707C179.481 14.9712 183.899 23.57 177.42 31.3469L176.561 32.3774L177.258 32.3703C179.939 32.3397 192.562 30.8352 206.466 28.8886C232.311 25.269 242.125 23.5605 260.493 19.4822C270.356 17.2916 271.514 17.0675 273.548 16.9532C275.055 16.8541 276.557 16.6901 278.054 16.4615C279.945 16.1561 280.205 16.1467 279.597 16.4061C279.195 16.5771 277.267 17.4826 275.312 18.4187C270.677 20.6377 270.11 20.8593 266.576 21.8415C263.162 22.7906 246.803 26.3183 240.172 27.5351ZM280.493 15.8272C280.593 15.7494 280.724 15.727 280.783 15.7788C280.842 15.8295 280.759 15.892 280.6 15.9192C280.423 15.9474 280.381 15.9109 280.493 15.826V15.8272ZM172.299 31.3387C181.663 24.196 177.46 17.1442 159.995 10.6936C148.339 6.38658 136.85 4.24426 124.752 4.11928C102.2 3.88583 91.1749 12.9173 103.431 21.5856C115.443 30.0806 136.425 34.0328 164.962 33.1768C169.525 33.04 170.334 32.8372 172.299 31.3387Z" fill="#76A9FA"/>
</svg>
